<svg width="163" height="49" viewBox="0 0 163 49" fill="none" xmlns="http://www.w3.org/2000/svg">
<g clip-path="url(#clip0_443_4996)">
<path d="M98.2578 46.1918V27.2174H103.742L109.226 41.9926L114.405 27.2174H119.89V46.1918H114.405V35.6159L111.054 46.1918H107.093L103.742 34.3717V46.1918H98.2578Z" fill="#68676C" stroke="#474747" stroke-width="0.336449"/>
<path d="M10.2066 31.2611L1.67572 17.7302H10.9682L15.843 25.9732L21.1748 17.7302H30.4673L21.6318 31.2611L31.5337 46.1918H21.1748L15.843 37.6378L10.9682 46.1918H0.304688L10.2066 31.2611Z" fill="#68676C" stroke="#474747" stroke-width="0.336449"/>
<path fill-rule="evenodd" clip-rule="evenodd" d="M33.5137 18.6634V44.7921C33.5137 45.4792 34.0593 46.0363 34.7324 46.0363H59.1062C59.7792 46.0363 60.3249 45.4792 60.3249 44.7921V18.6634C60.3249 17.9762 59.7792 17.4191 59.1062 17.4191H34.7324C34.0593 17.4191 33.5137 17.9762 33.5137 18.6634ZM44.7866 20.5297C44.6184 20.5297 44.4819 20.669 44.4819 20.8407V43.2368C44.4819 43.4085 44.6184 43.5479 44.7866 43.5479H48.7473C48.9155 43.5479 49.052 43.4085 49.052 43.2368V20.8407C49.052 20.669 48.9155 20.5297 48.7473 20.5297H44.7866Z" fill="#68676C"/>
<path d="M33.666 44.7921V18.6634H33.3613V44.7921H33.666ZM34.7324 45.8808C34.1434 45.8808 33.666 45.3934 33.666 44.7921H33.3613C33.3613 45.5651 33.9752 46.1918 34.7324 46.1918V45.8808ZM59.1062 45.8808H34.7324V46.1918H59.1062V45.8808ZM60.1725 44.7921C60.1725 45.3934 59.6951 45.8808 59.1062 45.8808V46.1918C59.8633 46.1918 60.4772 45.5651 60.4772 44.7921H60.1725ZM60.1725 18.6634V44.7921H60.4772V18.6634H60.1725ZM59.1062 17.5747C59.6951 17.5747 60.1725 18.0621 60.1725 18.6634H60.4772C60.4772 17.8903 59.8633 17.2636 59.1062 17.2636V17.5747ZM34.7324 17.5747H59.1062V17.2636H34.7324V17.5747ZM33.666 18.6634C33.666 18.0621 34.1434 17.5747 34.7324 17.5747V17.2636C33.9752 17.2636 33.3613 17.8903 33.3613 18.6634H33.666ZM44.6342 20.8408C44.6342 20.7549 44.7025 20.6852 44.7866 20.6852V20.3742C44.5343 20.3742 44.3296 20.5831 44.3296 20.8408H44.6342ZM44.6342 43.2368V20.8408H44.3296V43.2368H44.6342ZM44.7866 43.3923C44.7025 43.3923 44.6342 43.3227 44.6342 43.2368H44.3296C44.3296 43.4944 44.5343 43.7034 44.7866 43.7034V43.3923ZM48.7473 43.3923H44.7866V43.7034H48.7473V43.3923ZM48.8996 43.2368C48.8996 43.3227 48.8314 43.3923 48.7473 43.3923V43.7034C48.9996 43.7034 49.2043 43.4944 49.2043 43.2368H48.8996ZM48.8996 20.8408V43.2368H49.2043V20.8408H48.8996ZM48.7473 20.6852C48.8314 20.6852 48.8996 20.7549 48.8996 20.8408H49.2043C49.2043 20.5831 48.9996 20.3742 48.7473 20.3742V20.6852ZM44.7866 20.6852H48.7473V20.3742H44.7866V20.6852Z" fill="#474747"/>
<path d="M87.8973 46.1918V29.7058L81.1945 48.2137L71.7496 34.8383V46.1918H63.3711V17.5746L80.2804 38.4154L87.8973 17.5746H96.4281V46.3473L87.8973 46.1918Z" fill="#68676C" stroke="#474747" stroke-width="0.336449"/>
<path d="M46.005 2.17737L28.6387 17.5747H30.619L47.3761 3.26607L81.4994 49.3024L85.7648 36.0825L65.5041 10.2648V0.311035H62.0004V5.44346L59.4106 2.17737H46.005Z" fill="#F24942"/>
<path d="M122.021 46.1918L122.174 27.3729H162.848V31.2611H155.536V46.1918H149.747V31.2611H127.506V34.6827H139.997V38.1044H127.506V42.4592H141.825V46.1918H122.021Z" fill="#68676C" stroke="#474747" stroke-width="0.336449"/>
</g>
<defs>
<clipPath id="clip0_443_4996">
<rect width="163" height="49" fill="white"/>
</clipPath>
</defs>
</svg>
